<?xml version="1.0" encoding="UTF-8" standalone="no"?>
<!DOCTYPE svg PUBLIC "-//W3C//DTD SVG 1.1//EN" "http://www.w3.org/Graphics/SVG/1.1/DTD/svg11.dtd">
<svg width="100%" height="100%" viewBox="0 0 400 400" version="1.1" xmlns="http://www.w3.org/2000/svg" xmlns:xlink="http://www.w3.org/1999/xlink" xml:space="preserve" xmlns:serif="http://www.serif.com/" style="fill-rule:evenodd;clip-rule:evenodd;stroke-linejoin:round;stroke-miterlimit:2;">
    <g>
        <g transform="matrix(1,0,0,1,1.13718,1.2533)">
            <path d="M179.7,5.879C178.765,5.971 178,6.216 178,6.423C178,6.63 176.481,6.8 174.624,6.8C172.503,6.8 171.141,6.972 170.962,7.262C170.773,7.567 170.854,7.614 171.2,7.4C171.522,7.201 171.626,7.234 171.471,7.485C171.332,7.71 169.561,7.928 167.536,7.969C165.51,8.01 163.661,8.164 163.427,8.312C163.192,8.46 161.748,8.697 160.217,8.839C158.686,8.981 157.366,9.301 157.284,9.549C157.2,9.801 156.277,10 155.19,10C154.122,10 153.136,10.18 153,10.4C152.864,10.62 152.236,10.8 151.605,10.8C150.974,10.8 150.187,11.07 149.857,11.4C149.467,11.791 148.475,12 147.016,12C145.393,12 144.711,12.165 144.545,12.6C144.395,12.991 143.772,13.2 142.757,13.2C141.901,13.2 141.2,13.38 141.2,13.6C141.2,13.82 140.564,14 139.787,14C138.901,14 138.289,14.223 138.145,14.6C138.004,14.967 137.397,15.2 136.581,15.2C135.847,15.2 135.136,15.38 135,15.6C134.864,15.82 134.326,16 133.805,16C133.284,16 132.587,16.27 132.257,16.6C131.927,16.93 131.207,17.2 130.657,17.2C130.107,17.2 129.387,17.47 129.057,17.8C128.727,18.13 128.084,18.4 127.629,18.4C127.173,18.4 126.8,18.58 126.8,18.8C126.8,19.02 126.273,19.2 125.629,19.2C124.984,19.2 124.187,19.47 123.857,19.8C123.527,20.13 122.884,20.4 122.429,20.4C121.973,20.4 121.6,20.58 121.6,20.8C121.6,21.02 121.253,21.2 120.829,21.2C120.404,21.2 119.787,21.47 119.457,21.8C119.127,22.13 118.497,22.4 118.057,22.4C117.617,22.4 116.987,22.67 116.657,23C116.327,23.33 115.684,23.6 115.229,23.6C114.773,23.6 114.4,23.78 114.4,24C114.4,24.22 114.149,24.4 113.843,24.4C113.536,24.4 113.182,24.67 113.055,25C112.929,25.33 112.369,25.6 111.813,25.6C111.256,25.6 110.8,25.76 110.8,25.955C110.8,26.151 110.17,26.429 109.4,26.574C108.63,26.718 108,27.008 108,27.218C108,27.428 107.749,27.6 107.443,27.6C107.136,27.6 106.782,27.87 106.655,28.2C106.529,28.53 106.059,28.8 105.613,28.8C105.166,28.8 104.8,28.98 104.8,29.2C104.8,29.42 104.35,29.6 103.8,29.6C103.223,29.6 102.842,29.807 102.9,30.091C102.955,30.36 102.554,30.648 102.009,30.73C101.464,30.812 100.618,31.312 100.128,31.84C99.639,32.368 98.87,32.8 98.419,32.8C97.958,32.8 97.6,33.062 97.6,33.4C97.6,33.73 97.366,34 97.08,34C96.161,34 94.406,34.984 94.403,35.5C94.401,35.775 93.95,36 93.4,36C92.778,36 92.4,36.227 92.4,36.6C92.4,36.93 92.13,37.2 91.8,37.2C91.47,37.2 91.2,37.38 91.2,37.6C91.2,37.82 90.834,38 90.387,38C89.941,38 89.471,38.27 89.345,38.6C89.218,38.93 88.929,39.2 88.703,39.2C88.477,39.2 87.875,39.65 87.365,40.2C86.855,40.75 86.241,41.2 86,41.2C85.759,41.2 85.145,41.65 84.635,42.2C84.125,42.75 83.504,43.2 83.254,43.2C83.004,43.2 82.8,43.47 82.8,43.8C82.8,44.13 82.472,44.4 82.072,44.4C81.308,44.4 78.807,46.409 78.791,47.036C78.786,47.236 78.201,47.695 77.491,48.055C76.781,48.415 76.249,48.923 76.31,49.184C76.37,49.446 76.246,49.552 76.033,49.42C75.82,49.289 75.09,49.726 74.409,50.391C73.729,51.056 72.999,51.6 72.786,51.6C72.574,51.6 72.4,51.84 72.4,52.132C72.4,52.425 71.95,52.906 71.4,53.2C70.85,53.494 70.4,53.975 70.4,54.268C70.4,54.56 70.219,54.8 69.997,54.8C69.485,54.8 54.8,69.506 54.8,70.019C54.8,70.229 54.56,70.4 54.268,70.4C53.975,70.4 53.494,70.85 53.2,71.4C52.906,71.95 52.425,72.4 52.132,72.4C51.84,72.4 51.6,72.604 51.6,72.854C51.6,73.104 51.15,73.725 50.6,74.235C50.05,74.745 49.6,75.307 49.6,75.485C49.6,75.663 49.15,76.293 48.6,76.887C48.05,77.48 47.6,78.153 47.6,78.383C47.6,78.612 47.391,78.8 47.136,78.8C46.439,78.8 44.4,81.238 44.4,82.072C44.4,82.472 44.13,82.8 43.8,82.8C43.47,82.8 43.2,83.027 43.2,83.305C43.2,83.583 42.75,84.148 42.2,84.561C41.65,84.974 41.2,85.596 41.2,85.943C41.2,86.29 40.74,86.97 40.178,87.453C39.615,87.936 39.128,88.694 39.095,89.138C39.061,89.582 38.89,89.856 38.714,89.747C38.538,89.638 38.27,89.876 38.118,90.275C37.966,90.674 37.427,91.448 36.921,91.996C36.414,92.544 36,93.309 36,93.696C36,94.083 35.73,94.4 35.4,94.4C35.07,94.4 34.8,94.67 34.8,95C34.8,95.33 34.62,95.6 34.4,95.6C34.18,95.6 34,96.05 34,96.6C34,97.222 33.773,97.6 33.4,97.6C33.07,97.6 32.8,97.951 32.8,98.379C32.8,98.808 32.35,99.644 31.8,100.238C31.25,100.831 30.8,101.651 30.8,102.058C30.8,102.466 30.53,102.8 30.2,102.8C29.827,102.8 29.6,103.178 29.6,103.8C29.6,104.35 29.42,104.8 29.2,104.8C28.98,104.8 28.8,105.25 28.8,105.8C28.8,106.422 28.573,106.8 28.2,106.8C27.87,106.8 27.6,107.055 27.6,107.367C27.6,107.678 27.465,107.993 27.3,108.067C26.783,108.297 25.6,111.181 25.6,112.214C25.6,112.756 25.375,113.201 25.1,113.203C24.633,113.206 23.6,114.931 23.6,115.708C23.6,115.9 23.33,116.327 23,116.657C22.67,116.987 22.4,117.617 22.4,118.057C22.4,118.497 22.13,119.127 21.8,119.457C21.47,119.787 21.2,120.404 21.2,120.829C21.2,121.253 21.02,121.6 20.8,121.6C20.58,121.6 20.4,122.031 20.4,122.557C20.4,123.084 20.13,123.618 19.8,123.745C19.423,123.889 19.2,124.501 19.2,125.387C19.2,126.164 19.02,126.8 18.8,126.8C18.58,126.8 18.4,127.346 18.4,128.013C18.4,128.721 18.151,129.321 17.8,129.455C17.47,129.582 17.2,130.129 17.2,130.671C17.2,131.214 16.93,131.927 16.6,132.257C16.27,132.587 16,133.284 16,133.805C16,134.326 15.82,134.864 15.6,135C15.38,135.136 15.2,135.847 15.2,136.581C15.2,137.397 14.967,138.004 14.6,138.145C14.223,138.289 14,138.901 14,139.787C14,140.564 13.82,141.2 13.6,141.2C13.38,141.2 13.2,141.901 13.2,142.757C13.2,143.772 12.991,144.395 12.6,144.545C12.16,144.713 12,145.407 12,147.145C12,148.882 11.84,149.576 11.4,149.745C11.026,149.888 10.8,150.498 10.8,151.364C10.8,152.128 10.62,152.864 10.4,153C10.18,153.136 10,154.122 10,155.19C10,156.389 9.809,157.197 9.5,157.3C9.003,157.466 8.599,160.515 8.153,167.475C8.016,169.608 7.743,170.915 7.371,171.224C6.955,171.569 6.8,172.655 6.8,175.216C6.8,177.674 6.649,178.783 6.3,178.9C5.571,179.143 5.571,218.131 6.3,218.86C6.623,219.183 6.8,220.588 6.8,222.831C6.8,225.348 6.957,226.432 7.37,226.775C7.732,227.075 8.019,228.374 8.155,230.324C8.694,238.044 9.017,240.54 9.5,240.7C9.799,240.8 10,241.575 10,242.633C10,243.605 10.18,244.4 10.4,244.4C10.62,244.4 10.8,245.216 10.8,246.213C10.8,247.455 10.989,248.098 11.4,248.255C11.829,248.42 12,249.091 12,250.614C12,251.973 12.217,252.96 12.6,253.343C12.93,253.673 13.2,254.485 13.2,255.148C13.2,255.811 13.38,256.464 13.6,256.6C13.82,256.736 14,257.447 14,258.181C14,258.997 14.233,259.604 14.6,259.745C14.977,259.889 15.2,260.501 15.2,261.387C15.2,262.164 15.38,262.8 15.6,262.8C15.82,262.8 16,263.327 16,263.971C16,264.616 16.27,265.413 16.6,265.743C16.93,266.073 17.2,266.696 17.2,267.129C17.2,267.561 17.47,268.018 17.8,268.145C18.177,268.289 18.4,268.901 18.4,269.787C18.4,270.564 18.58,271.2 18.8,271.2C19.02,271.2 19.2,271.727 19.2,272.371C19.2,273.016 19.47,273.813 19.8,274.143C20.13,274.473 20.4,275.116 20.4,275.571C20.4,276.027 20.56,276.4 20.757,276.4C20.953,276.4 21.226,276.85 21.364,277.4C21.502,277.95 21.792,278.4 22.008,278.4C22.223,278.4 22.4,278.918 22.4,279.551C22.4,280.184 22.67,280.926 23,281.2C23.33,281.474 23.6,282.126 23.6,282.649C23.6,283.172 23.737,283.6 23.905,283.6C24.225,283.6 24.554,284.177 26.012,287.3C26.499,288.345 27.056,289.2 27.249,289.2C27.442,289.2 27.6,289.65 27.6,290.2C27.6,290.822 27.827,291.2 28.2,291.2C28.573,291.2 28.8,291.578 28.8,292.2C28.8,292.75 28.98,293.2 29.2,293.2C29.42,293.2 29.6,293.566 29.6,294.013C29.6,294.459 29.87,294.929 30.2,295.055C30.53,295.182 30.8,295.536 30.8,295.843C30.8,296.149 30.96,296.4 31.157,296.4C31.353,296.4 31.626,296.85 31.764,297.4C31.902,297.95 32.192,298.4 32.408,298.4C32.623,298.4 32.8,298.85 32.8,299.4C32.8,300.022 33.027,300.4 33.4,300.4C33.73,300.4 34,300.67 34,301C34,301.33 34.18,301.6 34.4,301.6C34.62,301.6 34.8,301.966 34.8,302.413C34.8,302.859 35.052,303.322 35.361,303.44C35.669,303.559 36.024,303.958 36.149,304.328C36.493,305.344 37.298,306.496 38.3,307.407C38.795,307.857 39.206,308.49 39.213,308.813C39.229,309.584 40.166,310.8 40.744,310.8C40.995,310.8 41.2,311.166 41.2,311.613C41.2,312.059 41.47,312.529 41.8,312.655C42.13,312.782 42.4,313.071 42.4,313.297C42.4,313.523 42.85,314.125 43.4,314.635C43.95,315.145 44.4,315.761 44.4,316.005C44.4,316.248 44.608,316.319 44.862,316.162C45.143,315.988 45.215,316.052 45.047,316.324C44.895,316.57 45.137,317.137 45.585,317.585C46.033,318.033 46.4,318.58 46.4,318.8C46.4,319.02 46.67,319.2 47,319.2C47.33,319.2 47.6,319.393 47.6,319.629C47.6,320.182 48.618,321.2 49.171,321.2C49.407,321.2 49.6,321.569 49.6,322.019C49.6,322.47 50.05,323.255 50.6,323.765C51.15,324.275 51.6,324.896 51.6,325.146C51.6,325.396 51.793,325.6 52.029,325.6C52.582,325.6 53.6,326.618 53.6,327.171C53.6,327.407 53.87,327.6 54.2,327.6C54.53,327.6 54.8,327.794 54.8,328.031C54.8,328.513 57.985,331.6 58.482,331.6C58.657,331.6 58.8,331.89 58.8,332.244C58.8,332.863 65.689,339.993 66.301,340.007C66.465,340.011 67.024,340.461 67.542,341.007C68.06,341.553 68.645,342 68.842,342C69.039,342 69.2,342.27 69.2,342.6C69.2,342.93 69.47,343.2 69.8,343.2C70.13,343.2 70.4,343.47 70.4,343.8C70.4,344.13 70.552,344.4 70.739,344.4C70.925,344.4 71.726,345.03 72.519,345.8C73.312,346.57 74.078,347.2 74.223,347.2C74.367,347.2 74.84,347.652 75.274,348.204C75.709,348.756 76.197,349.126 76.359,349.025C76.521,348.925 76.907,349.193 77.215,349.621C77.524,350.05 78.007,350.4 78.288,350.4C78.57,350.4 78.8,350.631 78.8,350.914C78.8,351.562 80.978,352.878 81.408,352.489C81.584,352.33 81.591,352.437 81.424,352.727C81.222,353.076 81.403,353.328 81.96,353.474C82.422,353.594 82.8,353.942 82.8,354.247C82.8,354.551 83.07,354.8 83.4,354.8C83.73,354.8 84,354.98 84,355.2C84,355.42 84.27,355.6 84.6,355.6C84.93,355.6 85.2,355.777 85.2,355.992C85.2,356.208 85.615,356.489 86.123,356.616C86.631,356.744 87.376,357.287 87.779,357.824C88.182,358.361 88.68,358.8 88.885,358.8C89.089,358.8 89.508,359.025 89.815,359.3C91.087,360.441 92.76,361.543 93.7,361.858C94.085,361.988 94.4,362.233 94.4,362.403C94.4,362.574 94.85,362.826 95.4,362.964C95.95,363.102 96.4,363.392 96.4,363.608C96.4,363.823 96.67,364 97,364C97.33,364 97.6,364.177 97.6,364.392C97.6,364.608 98.05,364.898 98.6,365.036C99.15,365.174 99.6,365.447 99.6,365.643C99.6,365.84 99.87,366 100.2,366C100.53,366 100.8,366.177 100.8,366.392C100.8,366.608 101.25,366.898 101.8,367.036C102.35,367.174 102.8,367.428 102.8,367.6C102.8,367.772 103.25,368.026 103.8,368.164C104.35,368.302 104.8,368.592 104.8,368.808C104.8,369.023 105.166,369.2 105.613,369.2C106.059,369.2 106.529,369.47 106.655,369.8C106.782,370.13 107.316,370.4 107.843,370.4C108.369,370.4 108.8,370.537 108.8,370.705C108.8,371.039 109.054,371.184 112.987,373.1C114.455,373.815 115.919,374.4 116.24,374.4C116.562,374.4 116.929,374.67 117.055,375C117.182,375.33 117.716,375.6 118.243,375.6C118.769,375.6 119.2,375.78 119.2,376C119.2,376.22 119.538,376.4 119.951,376.4C120.364,376.4 120.926,376.67 121.2,377C121.474,377.33 122.081,377.606 122.549,377.613C123.017,377.62 123.749,377.89 124.176,378.213C124.604,378.536 125.369,378.8 125.876,378.8C126.384,378.8 126.8,378.98 126.8,379.2C126.8,379.42 127.173,379.6 127.629,379.6C128.084,379.6 128.727,379.87 129.057,380.2C129.387,380.53 130.174,380.8 130.805,380.8C131.436,380.8 132.064,380.98 132.2,381.2C132.336,381.42 132.957,381.6 133.581,381.6C134.219,381.6 134.815,381.862 134.945,382.2C135.071,382.53 135.676,382.806 136.287,382.813C136.899,382.82 137.749,383.09 138.176,383.413C138.604,383.736 139.538,384 140.253,384C140.968,384 141.664,384.18 141.8,384.4C141.936,384.62 142.737,384.8 143.581,384.8C144.575,384.8 145.195,385.011 145.345,385.4C145.488,385.774 146.098,386 146.964,386C147.728,386 148.464,386.18 148.6,386.4C148.736,386.62 149.717,386.8 150.781,386.8C152.131,386.8 152.784,386.981 152.945,387.4C153.112,387.835 153.809,388.003 155.487,388.013C156.884,388.02 158.108,388.258 158.576,388.613C159.05,388.971 160.25,389.2 161.653,389.2C162.918,389.2 164.064,389.38 164.2,389.6C164.336,389.82 165.301,390 166.344,390C167.387,390 168.448,390.208 168.703,390.463C170.5,392.26 227.105,392.255 228.902,390.458C229.154,390.206 230.314,390 231.48,390C232.646,390 233.6,389.82 233.6,389.6C233.6,389.374 234.738,389.2 236.213,389.2C238.166,389.2 238.883,389.049 239.055,388.6C239.229,388.147 239.962,388 242.055,388C244.148,388 244.881,387.853 245.055,387.4C245.217,386.98 245.872,386.8 247.243,386.8C248.319,386.8 249.2,386.62 249.2,386.4C249.2,386.18 249.92,386 250.8,386C251.956,386 252.4,385.833 252.4,385.4C252.4,384.957 252.864,384.8 254.176,384.8C255.153,384.8 256.064,384.62 256.2,384.4C256.336,384.18 256.942,384 257.547,384C258.152,384 258.996,383.736 259.424,383.413C259.851,383.09 260.701,382.82 261.313,382.813C261.924,382.806 262.529,382.53 262.655,382.2C262.785,381.862 263.381,381.6 264.019,381.6C264.643,381.6 265.264,381.42 265.4,381.2C265.536,380.98 266.072,380.8 266.591,380.8C267.78,380.8 268.848,380.402 268.625,380.041C268.532,379.89 269.028,379.723 269.728,379.67C270.427,379.618 271.06,379.4 271.133,379.187C271.207,378.974 271.59,378.8 271.984,378.8C272.379,378.8 272.926,378.53 273.2,378.2C273.474,377.87 274.222,377.6 274.862,377.6C275.527,377.6 276.124,377.343 276.255,377C276.382,376.67 276.906,376.4 277.419,376.4C277.933,376.4 278.464,376.22 278.6,376C278.736,375.78 279.202,375.6 279.636,375.6C280.07,375.6 280.529,375.33 280.655,375C280.782,374.67 281.316,374.4 281.843,374.4C282.369,374.4 282.8,374.24 282.8,374.045C282.8,373.849 283.43,373.571 284.2,373.426C284.97,373.282 285.6,372.992 285.6,372.782C285.6,372.572 285.87,372.4 286.2,372.4C286.53,372.4 286.8,372.13 286.8,371.8C286.8,371.431 287.175,371.2 287.776,371.2C288.313,371.2 288.864,371.02 289,370.8C289.136,370.58 289.602,370.4 290.036,370.4C290.47,370.4 290.929,370.13 291.055,369.8C291.182,369.47 291.651,369.2 292.097,369.2C292.543,369.2 293.325,368.75 293.835,368.2C294.345,367.65 295.111,367.2 295.538,367.2C295.965,367.2 296.418,366.93 296.545,366.6C296.671,366.27 297.075,366 297.442,366C297.808,366 298.525,365.55 299.035,365C299.545,364.45 300.218,364 300.532,364C300.845,364 301.326,363.73 301.6,363.4C301.874,363.07 302.32,362.8 302.591,362.8C302.862,362.8 303.569,362.35 304.162,361.8C304.756,361.25 305.423,360.8 305.644,360.8C305.866,360.8 305.933,360.616 305.794,360.39C305.655,360.165 305.689,360.006 305.87,360.037C306.832,360.205 307.6,359.934 307.6,359.428C307.6,359.113 308.005,358.794 308.5,358.718C308.995,358.643 309.355,358.36 309.3,358.091C309.245,357.821 309.56,357.6 310,357.6C310.44,357.6 310.8,357.42 310.8,357.2C310.8,356.98 311.051,356.8 311.357,356.8C311.664,356.8 312.018,356.53 312.145,356.2C312.271,355.87 312.657,355.6 313.003,355.6C313.348,355.6 314.38,354.88 315.296,354C316.212,353.12 317.116,352.4 317.304,352.4C317.493,352.4 317.519,352.192 317.362,351.938C317.188,351.657 317.252,351.585 317.524,351.753C317.77,351.905 318.337,351.663 318.785,351.215C319.233,350.767 319.737,350.4 319.905,350.4C320.073,350.4 320.548,349.95 320.961,349.4C321.374,348.85 321.962,348.4 322.269,348.4C322.575,348.4 322.929,348.13 323.055,347.8C323.182,347.47 323.464,347.2 323.681,347.2C323.899,347.2 325.41,345.85 327.038,344.2C328.667,342.55 330.148,341.2 330.328,341.2C330.814,341.2 334.617,337.47 334.5,337.109C334.445,336.939 334.625,336.801 334.9,336.803C335.628,336.808 339.627,332.367 339.329,331.884C339.189,331.659 339.272,331.597 339.514,331.747C339.928,332.003 342,330.142 342,329.513C342,329.351 343.17,328.06 344.6,326.644C346.03,325.228 347.2,323.893 347.2,323.678C347.2,323.462 347.47,323.182 347.8,323.055C348.13,322.929 348.4,322.459 348.4,322.013C348.4,321.566 348.593,321.2 348.829,321.2C349.266,321.2 350.4,320.225 350.4,319.849C350.4,319.735 350.85,319.156 351.4,318.562C351.95,317.969 352.4,317.149 352.4,316.742C352.4,316.334 352.609,316 352.864,316C353.561,316 355.6,313.562 355.6,312.728C355.6,312.328 355.87,312 356.2,312C356.53,312 356.8,311.73 356.8,311.4C356.8,311.07 356.98,310.8 357.2,310.8C357.42,310.8 357.6,310.53 357.6,310.2C357.6,309.87 357.777,309.6 357.992,309.6C358.208,309.6 358.498,309.15 358.636,308.6C358.774,308.05 359.137,307.6 359.443,307.6C359.936,307.6 360.203,306.824 360.037,305.87C360.006,305.689 360.165,305.655 360.39,305.794C360.616,305.933 360.8,305.786 360.8,305.466C360.8,305.147 361.042,304.793 361.337,304.68C361.632,304.566 362.181,303.827 362.556,303.037C362.931,302.247 363.409,301.6 363.619,301.6C363.828,301.6 364,301.231 364,300.781C364,300.33 364.45,299.545 365,299.035C365.55,298.525 366,297.724 366,297.254C366,296.762 366.254,296.4 366.6,296.4C366.93,296.4 367.2,296.049 367.2,295.621C367.2,295.192 367.65,294.356 368.2,293.762C368.75,293.169 369.2,292.369 369.2,291.984C369.2,291.6 369.47,291.182 369.8,291.055C370.13,290.929 370.4,290.47 370.4,290.036C370.4,289.602 370.58,289.136 370.8,289C371.02,288.864 371.2,288.313 371.2,287.776C371.2,287.175 371.431,286.8 371.8,286.8C372.173,286.8 372.4,286.422 372.4,285.8C372.4,285.25 372.577,284.8 372.792,284.8C373.008,284.8 373.298,284.35 373.436,283.8C373.574,283.25 373.847,282.8 374.043,282.8C374.24,282.8 374.4,282.369 374.4,281.843C374.4,281.316 374.67,280.782 375,280.655C375.33,280.529 375.6,279.969 375.6,279.413C375.6,278.856 375.78,278.4 376,278.4C376.22,278.4 376.4,277.969 376.4,277.443C376.4,276.916 376.67,276.382 377,276.255C377.372,276.113 377.6,275.504 377.6,274.655C377.6,273.807 377.828,273.198 378.2,273.055C378.53,272.929 378.8,272.459 378.8,272.013C378.8,271.566 378.98,271.2 379.2,271.2C379.42,271.2 379.6,270.682 379.6,270.049C379.6,269.416 379.87,268.674 380.2,268.4C380.53,268.126 380.8,267.294 380.8,266.551C380.8,265.808 380.98,265.2 381.2,265.2C381.42,265.2 381.6,264.737 381.6,264.171C381.6,263.606 381.87,262.873 382.2,262.543C382.53,262.213 382.806,261.551 382.813,261.071C382.82,260.592 383.09,259.851 383.413,259.424C383.736,258.996 384,258.152 384,257.547C384,256.942 384.18,256.336 384.4,256.2C384.62,256.064 384.8,255.173 384.8,254.219C384.8,253.047 384.994,252.411 385.4,252.255C385.809,252.098 386,251.458 386,250.246C386,249.267 386.17,248.407 386.379,248.333C386.587,248.26 386.801,247.334 386.854,246.277C386.908,245.219 387.126,244.246 387.338,244.115C387.566,243.974 387.591,244.09 387.4,244.4C387.186,244.746 387.233,244.827 387.538,244.638C387.811,244.47 388,243.285 388,241.748C388,239.966 388.19,238.953 388.6,238.543C388.969,238.174 389.2,237.193 389.2,235.995C389.2,234.924 389.38,233.936 389.6,233.8C389.82,233.664 390,232.408 390,231.01C390,229.33 390.17,228.41 390.5,228.301C391.545,227.955 392.513,187.316 391.622,181.2C391.382,179.55 391.176,176.445 391.165,174.3C391.149,171.476 390.986,170.243 390.572,169.829C390.203,169.46 390,168.404 390,166.852C390,165.529 389.842,164.349 389.649,164.23C389.455,164.111 389.216,162.895 389.117,161.529C389.017,160.134 388.732,158.977 388.469,158.89C388.176,158.792 388,157.78 388,156.195C388,154.472 387.807,153.464 387.4,153.057C387.07,152.727 386.8,151.814 386.8,151.029C386.8,150.243 386.62,149.6 386.4,149.6C386.18,149.6 386,148.784 386,147.787C386,146.545 385.811,145.902 385.4,145.745C385.008,145.594 384.8,144.972 384.8,143.952C384.8,143.092 384.63,142.077 384.422,141.695C384.214,141.313 383.936,140.325 383.804,139.5C383.672,138.675 383.392,138 383.182,138C382.972,138 382.8,137.569 382.8,137.043C382.8,136.516 382.53,135.982 382.2,135.855C381.826,135.712 381.6,135.102 381.6,134.236C381.6,133.472 381.42,132.736 381.2,132.6C380.98,132.464 380.8,131.858 380.8,131.253C380.8,130.648 380.536,129.804 380.213,129.376C379.89,128.949 379.62,128.195 379.613,127.7C379.606,127.205 379.42,126.8 379.2,126.8C378.98,126.8 378.8,126.453 378.8,126.029C378.8,125.604 378.53,124.987 378.2,124.657C377.87,124.327 377.6,123.589 377.6,123.016C377.6,122.443 377.33,121.871 377,121.745C376.658,121.613 376.4,121.017 376.4,120.357C376.4,119.721 376.22,119.2 376,119.2C375.78,119.2 375.6,118.834 375.6,118.387C375.6,117.941 375.33,117.471 375,117.345C374.67,117.218 374.4,116.801 374.4,116.419C374.4,115.494 373.239,113.2 372.771,113.2C372.567,113.2 372.4,112.744 372.4,112.187C372.4,111.631 372.13,111.071 371.8,110.945C371.47,110.818 371.2,110.284 371.2,109.757C371.2,109.231 371.02,108.8 370.8,108.8C370.58,108.8 370.4,108.434 370.4,107.987C370.4,107.541 370.13,107.071 369.8,106.945C369.47,106.818 369.2,106.273 369.2,105.734C369.2,105.194 369.035,104.855 368.833,104.98C368.63,105.105 368.346,104.665 368.201,104.003C368.055,103.342 367.771,102.8 367.568,102.8C367.366,102.8 367.2,102.549 367.2,102.243C367.2,101.936 366.93,101.582 366.6,101.455C366.27,101.329 366,100.859 366,100.413C366,99.966 365.841,99.6 365.647,99.6C365.452,99.6 365.188,99.285 365.058,98.9C364.789,98.099 364.03,96.885 363.3,96.088C363.025,95.788 362.8,95.286 362.8,94.971C362.8,94.657 362.62,94.4 362.4,94.4C362.18,94.4 362,94.13 362,93.8C362,93.47 361.73,93.2 361.4,93.2C361.07,93.2 360.8,92.866 360.8,92.458C360.8,92.051 360.35,91.231 359.8,90.638C359.25,90.044 358.8,89.323 358.8,89.035C358.8,88.748 358.35,88.174 357.8,87.761C357.25,87.348 356.8,86.802 356.8,86.548C356.8,86.294 356.53,85.982 356.2,85.855C355.87,85.729 355.6,85.325 355.6,84.958C355.6,84.592 355.15,83.875 354.6,83.365C354.05,82.855 353.6,82.25 353.6,82.019C353.6,81.789 353.428,81.6 353.219,81.6C353.009,81.6 352.539,80.97 352.173,80.2C351.808,79.43 351.259,78.8 350.954,78.8C350.649,78.8 350.398,78.575 350.396,78.3C350.394,78.025 349.676,77.17 348.8,76.4C347.924,75.63 347.206,74.766 347.204,74.48C347.202,74.194 346.57,73.312 345.8,72.519C345.03,71.726 344.4,70.925 344.4,70.739C344.4,70.552 344.13,70.4 343.8,70.4C343.47,70.4 343.2,70.13 343.2,69.8C343.2,69.47 343.007,69.2 342.771,69.2C342.218,69.2 341.2,68.182 341.2,67.629C341.2,67.393 340.93,67.2 340.6,67.2C340.27,67.2 340,67.014 340,66.787C340,66.368 337.754,64 337.358,64C337.075,64 336,62.92 336,62.637C336,62.279 328.304,54.8 327.936,54.8C327.751,54.8 327.6,54.53 327.6,54.2C327.6,53.87 327.408,53.6 327.173,53.6C326.938,53.6 326.155,52.973 325.433,52.207C324.71,51.441 324.002,50.931 323.86,51.074C323.717,51.217 323.6,51.123 323.6,50.867C323.6,50.61 323.374,50.4 323.098,50.4C322.822,50.4 322.07,49.77 321.428,49C320.786,48.23 320.022,47.6 319.73,47.6C319.439,47.6 319.2,47.33 319.2,47C319.2,46.67 318.996,46.4 318.746,46.4C318.496,46.4 317.875,45.95 317.365,45.4C316.855,44.85 316.241,44.4 316,44.4C315.759,44.4 315.145,43.95 314.635,43.4C314.125,42.85 313.408,42.4 313.042,42.4C312.675,42.4 312.271,42.13 312.145,41.8C312.018,41.47 311.664,41.2 311.357,41.2C311.051,41.2 310.8,40.93 310.8,40.6C310.8,40.27 310.53,40 310.2,40C309.87,40 309.6,39.82 309.6,39.6C309.6,39.38 309.373,39.2 309.096,39.2C308.819,39.2 308.134,38.795 307.575,38.3C306.306,37.178 305.199,36.444 304.328,36.149C303.958,36.024 303.559,35.669 303.44,35.361C303.322,35.052 302.859,34.8 302.413,34.8C301.966,34.8 301.6,34.62 301.6,34.4C301.6,34.18 301.349,34 301.043,34C300.736,34 300.382,33.73 300.255,33.4C300.129,33.07 299.659,32.8 299.213,32.8C298.766,32.8 298.4,32.62 298.4,32.4C298.4,32.18 298.149,32 297.843,32C297.536,32 297.178,31.719 297.046,31.375C296.914,31.031 296.648,30.847 296.454,30.966C296.261,31.086 295.692,30.827 295.19,30.392C294.688,29.956 294.035,29.6 293.739,29.6C293.442,29.6 293.2,29.42 293.2,29.2C293.2,28.98 292.75,28.8 292.2,28.8C291.578,28.8 291.2,28.573 291.2,28.2C291.2,27.87 290.855,27.6 290.433,27.6C290.012,27.6 289.607,27.465 289.533,27.3C289.326,26.833 286.463,25.6 285.586,25.6C285.154,25.6 284.8,25.33 284.8,25C284.8,24.67 284.558,24.4 284.261,24.4C283.574,24.4 281.288,23.267 280.984,22.775C280.857,22.569 280.223,22.4 279.576,22.4C278.929,22.4 278.4,22.232 278.4,22.027C278.4,21.822 277.995,21.528 277.5,21.373C277.005,21.219 276.503,20.942 276.384,20.759C276.266,20.576 275.577,20.38 274.854,20.325C274.131,20.27 273.435,20.057 273.308,19.851C273.174,19.634 273.297,19.613 273.6,19.8C273.946,20.014 274.027,19.967 273.838,19.662C273.681,19.408 273.023,19.2 272.376,19.2C271.729,19.2 271.2,19.02 271.2,18.8C271.2,18.58 270.737,18.4 270.171,18.4C269.606,18.4 268.873,18.13 268.543,17.8C268.213,17.47 267.521,17.2 267.005,17.2C266.489,17.2 266.003,17.01 265.926,16.779C265.782,16.345 263.661,15.687 261.2,15.313C260.43,15.195 259.656,14.852 259.48,14.55C259.304,14.247 258.665,14 258.06,14C257.455,14 256.789,13.83 256.58,13.621C256.371,13.413 255.423,13.197 254.474,13.142C253.525,13.086 252.642,12.869 252.513,12.658C252.374,12.434 252.493,12.41 252.8,12.6C253.146,12.814 253.227,12.767 253.038,12.462C252.879,12.204 251.79,12 250.576,12C249.379,12 248.4,11.822 248.4,11.605C248.4,11.387 247.676,11.094 246.791,10.952C245.906,10.811 245.086,10.539 244.968,10.347C244.849,10.156 243.833,10 242.708,10C241.49,10 240.406,9.767 240.027,9.424C239.636,9.071 238.391,8.818 236.795,8.768C235.368,8.724 234.014,8.543 233.787,8.367C233.559,8.19 231.889,8.01 230.075,7.966C228.261,7.923 226.665,7.704 226.527,7.482C226.374,7.234 226.48,7.202 226.8,7.4C227.146,7.614 227.227,7.567 227.038,7.262C226.86,6.973 225.517,6.8 223.456,6.8C221.352,6.8 219.979,6.619 219.66,6.3C219.173,5.812 184.142,5.443 179.7,5.879" style="fill:rgb(28,9,80);"/>
        </g>
        <g transform="matrix(0.504522,0,0,0.504522,-54.7373,109.431)">
            <g transform="matrix(12.7572,0,0,12.7572,-0.841983,-255.409)">
                <path d="M12.853,31.201C12.867,37.369 12.896,40.295 12.946,40.33C12.984,40.357 13.056,40.611 13.103,40.894C13.152,41.177 13.235,41.507 13.295,41.628C13.35,41.745 13.441,41.98 13.498,42.145C13.554,42.31 13.663,42.539 13.74,42.646C13.823,42.755 13.884,42.86 13.884,42.882C13.884,43.091 15.181,44.532 15.368,44.532C15.418,44.532 15.495,44.594 15.542,44.669C15.591,44.751 15.671,44.812 15.724,44.812C15.773,44.812 15.888,44.876 15.971,44.951C16.062,45.027 16.24,45.129 16.369,45.176C16.498,45.223 16.602,45.286 16.602,45.309C16.602,45.336 16.815,45.413 17.076,45.482C17.335,45.553 17.562,45.633 17.585,45.663C17.634,45.732 18.784,45.931 19.163,45.931C19.328,45.931 19.466,45.958 19.466,45.999C19.466,46.044 21.633,45.922 22.056,45.875C22.483,45.83 22.925,45.748 23.038,45.69C23.147,45.634 23.423,45.536 23.643,45.47C23.862,45.407 24.055,45.332 24.077,45.304C24.097,45.283 24.243,45.2 24.407,45.128C24.572,45.057 24.704,44.972 24.704,44.936L24.792,44.881C24.875,44.881 25.329,44.54 25.788,44.13C26.063,43.883 26.522,43.311 26.522,43.212L26.59,43.129C26.658,43.129 26.805,42.882 27.085,42.293C27.388,41.639 27.434,41.522 27.512,41.127C27.555,40.907 27.614,40.706 27.641,40.687C27.773,40.597 27.847,38.982 27.847,36.249L27.847,33.29L23.252,33.29L23.23,36.342C23.208,38.698 23.183,39.395 23.114,39.417C23.068,39.433 23.032,39.499 23.032,39.567C23.032,40.442 22.083,41.416 21.052,41.602C19.878,41.823 19.059,41.508 18.261,40.551C18.165,40.436 17.931,39.733 17.931,39.562C17.931,39.499 17.89,39.435 17.843,39.418C17.778,39.397 17.755,38.445 17.734,35.046L17.714,30.706L27.851,30.706L27.851,27.076L17.726,27.076L17.726,22.112L12.83,22.112L12.847,31.195" style="fill:white;fill-rule:nonzero;"/>
            </g>
            <g transform="matrix(12.7572,0,0,12.7572,-0.841983,-255.409)">
                <path d="M31.611,31.266C31.625,37.434 31.654,40.36 31.704,40.395C31.742,40.422 31.814,40.676 31.861,40.959C31.91,41.242 31.993,41.572 32.053,41.693C32.108,41.81 32.199,42.045 32.256,42.21C32.312,42.375 32.421,42.604 32.498,42.711C32.581,42.82 32.642,42.925 32.642,42.947C32.642,43.156 33.939,44.597 34.126,44.597C34.176,44.597 34.253,44.659 34.3,44.734C34.349,44.816 34.429,44.877 34.482,44.877C34.531,44.877 34.646,44.941 34.729,45.016C34.82,45.092 34.998,45.194 35.127,45.241C35.256,45.288 35.36,45.351 35.36,45.374C35.36,45.401 35.573,45.478 35.834,45.547C36.093,45.618 36.32,45.698 36.343,45.728C36.392,45.797 37.542,45.996 37.921,45.996C38.086,45.996 38.224,46.023 38.224,46.064C38.224,46.109 40.391,45.987 40.814,45.94C41.241,45.895 41.683,45.813 41.796,45.755C41.905,45.699 42.181,45.601 42.401,45.535C42.62,45.472 42.813,45.397 42.835,45.369C42.855,45.348 43.001,45.265 43.165,45.193C43.33,45.122 43.462,45.037 43.462,45.001L43.55,44.946C43.633,44.946 44.087,44.605 44.546,44.195C44.821,43.948 45.28,43.376 45.28,43.277L45.348,43.194C45.416,43.194 45.563,42.947 45.843,42.358C46.146,41.704 46.192,41.587 46.27,41.192C46.313,40.972 46.372,40.771 46.399,40.752C46.531,40.662 46.605,39.047 46.605,36.314L46.605,33.355L42.01,33.355L41.988,36.407C41.966,38.763 41.941,39.46 41.872,39.482C41.826,39.498 41.79,39.564 41.79,39.632C41.79,40.507 40.841,41.481 39.81,41.667C38.636,41.888 37.817,41.573 37.019,40.616C36.923,40.501 36.689,39.798 36.689,39.627C36.689,39.564 36.648,39.5 36.601,39.483C36.536,39.462 36.513,38.51 36.492,35.111L36.472,30.771L46.609,30.771L46.609,27.141L36.484,27.141L36.484,22.177L31.588,22.177L31.605,31.26M55.733,26.664C55.595,26.68 55.43,26.719 55.348,26.757C55.274,26.793 54.991,26.856 54.721,26.9C54.451,26.942 54.138,27.018 54.023,27.07C53.907,27.12 53.649,27.216 53.445,27.279C53.244,27.342 53.079,27.417 53.079,27.45C53.079,27.477 52.95,27.543 52.793,27.596C52.639,27.651 52.491,27.734 52.474,27.783C52.455,27.838 52.397,27.876 52.348,27.876C52.21,27.876 51.468,28.522 51.231,28.85L50.901,29.29C50.832,29.367 50.777,29.463 50.777,29.497C50.777,29.533 50.714,29.689 50.634,29.854C50.453,30.222 50.29,30.899 50.29,31.278C50.29,31.443 50.257,31.591 50.219,31.616C50.131,31.671 50.125,32.378 50.211,32.543C50.25,32.609 50.31,32.914 50.349,33.222C50.459,34.075 51.069,35.213 51.627,35.614L51.842,35.796C51.891,35.846 52.029,35.947 52.144,36.017L52.419,36.208C52.84,36.53 53.86,37.042 54.256,37.13C54.382,37.157 54.484,37.204 54.484,37.232C54.484,37.26 54.745,37.342 55.062,37.414C55.378,37.486 55.667,37.568 55.708,37.596C55.747,37.623 56.043,37.7 56.368,37.77C56.698,37.835 56.981,37.915 57,37.94C57.017,37.967 57.325,38.049 57.679,38.119C58.037,38.188 58.325,38.272 58.325,38.304L58.44,38.359C58.586,38.359 59.326,38.585 59.375,38.642C59.392,38.669 59.628,38.744 59.897,38.816C60.164,38.884 60.4,38.964 60.42,38.989C60.439,39.016 60.574,39.072 60.722,39.127C62.276,39.63 61.621,41.668 59.795,42.006C59.561,42.05 59.372,42.11 59.372,42.144C59.372,42.221 57.466,42.218 57.381,42.144C57.345,42.106 57.114,42.041 56.87,41.996C55.957,41.823 55.063,41.143 54.89,40.483C54.843,40.313 54.78,40.174 54.752,40.174C54.719,40.174 54.697,40.018 54.697,39.825L54.697,39.469L49.581,39.469L49.581,39.936C49.581,40.431 49.741,41.311 49.851,41.449C49.884,41.493 49.967,41.691 50.033,41.889C50.094,42.09 50.192,42.29 50.247,42.334C50.302,42.381 50.349,42.457 50.349,42.504C50.349,42.752 51.553,44.027 52.142,44.402L52.373,44.566C52.464,44.668 53.217,45.05 53.481,45.13C53.641,45.174 53.773,45.239 53.773,45.262C53.773,45.289 54.015,45.364 54.312,45.427C54.609,45.495 54.909,45.581 54.978,45.619C55.129,45.702 56.538,45.893 56.994,45.893C57.179,45.893 57.352,45.921 57.371,45.959C57.426,46.041 59.502,46.056 59.502,45.971C59.502,45.938 59.777,45.893 60.112,45.869C60.843,45.818 61.666,45.676 61.666,45.594C61.666,45.567 61.743,45.539 61.839,45.539C62.095,45.539 62.87,45.312 62.978,45.209C63.033,45.159 63.115,45.117 63.17,45.117C63.28,45.117 63.527,44.991 63.673,44.856C63.728,44.806 63.81,44.768 63.857,44.768C64.195,44.768 65.65,43.277 65.81,42.76C65.837,42.672 65.893,42.603 65.92,42.603C65.953,42.603 66.035,42.392 66.104,42.13C66.173,41.874 66.252,41.647 66.28,41.627C66.519,41.462 66.519,38.311 66.28,38.134C66.252,38.118 66.178,37.92 66.11,37.7C66.041,37.474 65.959,37.296 65.925,37.296C65.886,37.296 65.837,37.228 65.815,37.145C65.705,36.801 64.591,35.847 64.036,35.619C63.898,35.564 63.753,35.481 63.706,35.437C63.662,35.393 63.417,35.319 63.164,35.272C62.916,35.223 62.707,35.162 62.707,35.135C62.707,35.102 62.459,35.025 62.148,34.951C61.84,34.882 61.59,34.805 61.59,34.78C61.59,34.753 61.329,34.676 61.012,34.607C60.696,34.535 60.402,34.453 60.361,34.42C60.319,34.392 60.036,34.31 59.728,34.249C59.426,34.189 59.151,34.112 59.109,34.084C59.07,34.056 58.771,33.974 58.449,33.902C58.119,33.83 57.836,33.754 57.817,33.729C57.798,33.702 57.547,33.625 57.259,33.556C56.967,33.487 56.717,33.408 56.698,33.38C56.678,33.352 56.5,33.278 56.299,33.215C56.107,33.146 55.93,33.072 55.92,33.045C55.906,33.017 55.782,32.94 55.645,32.869C55.494,32.792 55.334,32.635 55.26,32.484C55.189,32.346 55.106,32.22 55.076,32.209C54.746,32.058 55.172,31.027 55.7,30.705C56.382,30.292 59.363,30.237 59.754,30.628C59.809,30.683 59.911,30.724 59.98,30.724C60.112,30.724 60.821,31.431 60.821,31.563C60.821,31.604 60.882,31.764 60.959,31.92C61.03,32.068 61.11,32.319 61.138,32.47L61.182,32.75L65.989,32.75L65.989,32.47C65.989,32.316 65.956,32.195 65.917,32.195C65.878,32.195 65.848,32.085 65.848,31.953C65.848,31.64 65.656,30.661 65.579,30.558C65.546,30.514 65.463,30.316 65.4,30.118C65.334,29.92 65.235,29.72 65.18,29.673L65.078,29.508C65.078,29.021 63.345,27.555 62.416,27.258C62.209,27.192 62.025,27.12 62.003,27.093C61.986,27.066 61.893,27.024 61.797,27.002L61.343,26.892C61.189,26.848 60.947,26.815 60.807,26.815C60.669,26.815 60.537,26.774 60.521,26.724C60.494,26.641 56.352,26.576 55.72,26.65" style="fill:white;fill-rule:nonzero;"/>
            </g>
        </g>
    </g>
</svg>
